<?xml version="1.0" encoding="utf-8"?><svg xmlns="http://www.w3.org/2000/svg" xmlns:xlink="http://www.w3.org/1999/xlink"><symbol viewBox="0 0 80 88" id="1" xmlns="http://www.w3.org/2000/svg"><path d="M24.4 5.4c-9.7 3-16.3 11.9-17.2 23.2-.2 3.6-1.1 6.9-1.8 7.5-1.8 1.4-1.9 12-.2 13.7 1.6 1.6 4.3 1.5 5.8-.3 1.1-1.3 1.6-.8 3.5 3.3C20.3 65.3 34.7 70.2 47 64c4.9-2.5 10.8-9.4 11.6-13.7l.6-3.3 1.9 2.4c2.5 3.2 2.4 5.2-.7 11.4-4.1 8.3-10.2 11.7-23.9 13.5-1.6.2-.2.5 3.1.6 3.5 0 7.7-.5 9.7-1.4C57 70.3 63 62.9 64.5 54.7c.4-2 1.3-4.1 2.1-4.8 2-1.6 1.9-12.2-.1-13.9-.9-.7-1.5-2.9-1.5-5.4 0-11.7-7.2-22.1-17.2-25.1-6.2-1.8-17.7-1.9-23.4-.1zm23 1.8c5.4 1.6 13.1 9.3 14.5 14.4 1.5 5.5 1.4 12.9-.3 14.3-1.1.9-1.4.3-1.9-3.4C57.3 15.6 40 6.4 25 14c-7.3 3.7-13 13-13 21.1 0 1.8-.2 1.9-1.5.9-2-1.7-2-9.3.1-15.3 1.7-5 7.4-10.9 12.8-13.3 3.9-1.7 18.5-1.8 24-.2zM45 15.1c6 2.7 7.9 4.5 10.6 10.4 1.9 4 2.4 6.7 2.4 13.1 0 13.1-3.5 19.8-12.4 24-6.6 3.1-12.6 3.1-19.1 0C17.4 58.4 14 52 14 39c0-13 3.4-19.4 12.5-23.6 6.2-2.9 12.5-3 18.5-.3zM8 43c.5 0 1.1-1.2 1.3-2.8.3-1.5.4-.2.3 2.8-.1 4.2-.5 5.5-1.6 5.5-1.2 0-1.5-1.4-1.6-6-.1-3.3.1-4.5.3-2.8.2 1.8.8 3.3 1.3 3.3zm54.7 2.7c-.2 1.6-.4.3-.4-2.7s.2-4.3.4-2.8c.2 1.6.2 4 0 5.5zm3 0c-.2 1.6-.4.3-.4-2.7s.2-4.3.4-2.8c.2 1.6.2 4 0 5.5z"/></symbol><symbol viewBox="0 0 113 103" id="2" xmlns="http://www.w3.org/2000/svg"><path d="M48.4 12.1c-3.4 1-21.5 17.6-29.9 27.6C9.7 50 9.8 56.4 18.7 66c3.1 3.4 6.9 6.8 8.4 7.6 3.3 1.7 11.2 1.9 14.1.3 1.2-.6 9-8.1 17.4-16.5 12.6-12.7 15.5-16.2 16.5-19.6 1.7-6.4-.2-11-7.4-18.5-7.4-7.8-11.8-9.4-19.3-7.2zm1.1 2.8C45.1 16.9 15 46.7 15 49c0 .7-.3 1-.6.7-1.4-1.3 5.2-9.5 17.1-21.2C42.8 17.3 48.4 13 52 13c.8 0-.3.9-2.5 1.9zM63 17.8c3.4 2.6 5.4 8.2 4.6 12.7-.6 2.9-3.6 6.5-16 18.9-8.4 8.5-16.2 15.9-17.4 16.5-4.9 2.6-13.4.5-16.6-4.1-2-2.8-2.1-10-.2-13.6 2.3-4.3 28.7-29.9 32.6-31.7 4.2-1.8 9.5-1.3 13 1.3zm10.2 12.3c2.2 7.4-.3 11.5-14.3 24-1.5 1.3-5.3 5.3-8.5 8.9-3.2 3.6-6.9 7.3-8.3 8.2-3.6 2.5-11.7 2.4-15.6-.2l-3-2h4c6.2-.1 10.8-2.9 18-10.9C49.1 54 55.1 48 58.8 44.8c8.3-7.4 10.3-10.5 10.5-16.2.2-5.3 2-4.6 3.9 1.5z"/><path d="M43.5 24.5c-3.6 3.5-3.7 8.7-.2 12.2s8.7 3.4 12.2-.2c3.5-3.4 3.3-7.8-.4-11.6-3.8-3.7-8.2-3.9-11.6-.4zM54 26c2.9 2.9 2.6 7.4-.7 10-6.4 5-14.3-2.9-9.3-9.3 2.6-3.3 7.1-3.6 10-.7zm21.6 18.9c-.3.4 1 1.5 2.9 2.4 4 1.9 6 4.7 7.1 10.2l.8 4 .4-3.4c.5-4.3-1.4-8.7-4.7-11-3.4-2.3-5.9-3.2-6.5-2.2zM73 79v12h27V67H73v12zm26 0v10H74V69h25v10z"/></symbol><symbol viewBox="0 0 74 85" id="3" xmlns="http://www.w3.org/2000/svg"><path d="M44 26.7c-7.4 2-13.6 3.7-13.8 3.8-.3.3 7.6 29.6 8.1 30.2.5.4 29.7-7.3 30.2-7.9.1-.2-1.6-6.9-3.8-15.1-3.1-11.3-4.4-14.7-5.6-14.6-.9 0-7.7 1.7-15.1 3.6zm16.3 1c.4 1.6 1.9 7.6 3.5 13.4l2.9 10.7-13.5 3.6c-7.4 2.1-13.5 3.6-13.7 3.4-1-1-7.3-26.4-6.7-26.9.4-.4 3.9-1.4 7.7-2.3 3.9-.9 9-2.2 11.5-3 6.6-2.1 7.7-2 8.3 1.1zM26.2 67.3C21.6 72.2 25 80 31.8 80c5.1 0 7.8-3.5 7.3-9.5-.5-5.3-9-7.4-12.9-3.2zm9.4 1c2.2 1.9 2.6 2.9 2 5-.3 1.5-1.7 3.4-3.1 4.3-2.1 1.3-2.8 1.4-5.2.2-3.9-1.8-4.5-7.8-1.1-10.2 3-2.1 4.2-2 7.4.7z"/></symbol><symbol viewBox="0 0 73 88" id="4" xmlns="http://www.w3.org/2000/svg"><path d="M6.2 5.2c-1.7 1.7-1.7 67.9 0 69.6 1.7 1.7 50.9 1.7 52.6 0 1.7-1.7 1.7-67.9 0-69.6-1.7-1.7-50.9-1.7-52.6 0zM13 8.8c0 4.9 1.1 5.2 19.5 5.2C51 14 52 13.7 52 8.7c0-2.6.3-2.8 3.3-2.5l3.2.3.3 31.5c.1 17.3 0 32.5-.3 33.8L58 74l-25.8-.2-25.7-.3L6.2 41c-.1-17.9 0-33 .3-33.7C6.7 6.6 8.3 6 10 6c2.6 0 3 .3 3 2.8zm38-1.1c-.1 4.2-.9 4.4-19.1 4.1l-17.4-.3-.3-2.8-.3-2.7h18.5C49.5 6 51 6.1 51 7.7z"/></symbol><symbol viewBox="0 0 75 93" id="logo__elem" xmlns="http://www.w3.org/2000/svg"><path d="M75 17.277l-1.814.455-5.444 1.364-15.424 3.182 2.722-9.093C33.719 7.275 11.49 19.55 5.14 40.92c-6.805 21.368 4.536 44.101 25.404 51.83C8.315 85.02-4.386 60.924 2.872 37.736 10.13 15.005 34.172 1.82 56.855 8.639L59.123 0 75 17.277z"/></symbol></svg>